<?xml version="1.0" standalone="no"?>
<!DOCTYPE svg PUBLIC "-//W3C//DTD SVG 20010904//EN"
 "http://www.w3.org/TR/2001/REC-SVG-20010904/DTD/svg10.dtd">
<svg version="1.0" xmlns="http://www.w3.org/2000/svg"
 width="400.000000pt" height="400.000000pt" viewBox="0 0 400.000000 400.000000"
 preserveAspectRatio="xMidYMid meet">

<g transform="translate(0.000000,400.000000) scale(0.100000,-0.100000)"
fill="#000000" stroke="none">
<path d="M1115 3321 c-73 -18 -323 -154 -333 -182 -2 -5 -8 -9 -14 -9 -18 0
-102 -63 -149 -112 -33 -33 -71 -95 -129 -209 -45 -89 -86 -169 -90 -178 -21
-37 -50 -111 -50 -126 0 -9 -5 -25 -10 -36 -6 -10 -20 -61 -31 -112 -23 -104
-22 -100 -44 -182 -9 -33 -18 -71 -20 -85 -2 -14 -9 -54 -15 -90 -6 -36 -16
-87 -21 -115 -25 -144 -16 -511 14 -563 3 -4 8 -32 11 -62 4 -30 11 -73 17
-95 6 -22 14 -57 20 -78 27 -108 119 -219 207 -250 59 -21 167 -22 206 -2 15
8 34 15 40 15 20 0 106 89 106 110 0 5 4 10 8 10 4 0 20 24 35 54 l27 54 78
-74 c42 -41 83 -74 90 -74 6 0 12 -4 12 -9 0 -10 142 -105 190 -127 157 -73
218 -93 395 -129 183 -37 494 -40 655 -5 25 5 65 12 90 15 55 7 58 8 200 52
63 20 134 49 158 64 24 16 45 29 48 29 5 0 61 38 80 55 28 25 90 71 113 85 25
16 26 15 59 -35 38 -56 50 -70 107 -127 47 -46 68 -59 151 -86 55 -18 68 -19
120 -8 97 20 234 132 234 192 0 8 4 14 8 14 4 0 14 15 21 32 18 44 17 42 41
128 11 41 27 98 35 125 8 28 17 68 20 90 3 22 9 58 12 80 11 67 3 498 -12 695
-3 30 -7 98 -10 150 -4 52 -10 109 -15 125 -5 17 -14 68 -20 115 -15 118 -52
241 -98 335 -11 22 -38 78 -61 125 -54 111 -81 153 -151 234 -83 96 -208 160
-337 173 -53 5 -74 2 -140 -22 -124 -45 -233 -142 -233 -207 0 -16 -3 -19 -9
-10 -8 13 -183 80 -231 88 -14 2 -47 9 -75 14 -27 6 -66 13 -85 15 -50 7 -355
7 -383 0 -12 -3 -63 -12 -112 -20 -50 -7 -121 -20 -160 -29 l-70 -17 -20 28
c-62 85 -143 136 -257 162 -52 12 -176 13 -223 2z m262 -57 c123 -41 247 -154
170 -154 -13 0 -27 -4 -32 -9 -6 -4 -45 -20 -88 -35 -79 -27 -152 -64 -244
-123 -28 -18 -54 -33 -56 -33 -17 0 -185 -163 -237 -230 -19 -25 -38 -46 -42
-48 -5 -2 -8 -8 -8 -14 0 -6 -13 -27 -28 -47 -16 -20 -45 -72 -66 -116 -21
-44 -41 -87 -46 -96 -15 -29 -60 -169 -60 -187 0 -10 -4 -22 -9 -27 -5 -6 -12
-28 -14 -50 -3 -22 -13 -76 -22 -120 -20 -93 -25 -335 -8 -357 6 -7 14 -29 18
-48 8 -38 35 -105 65 -160 11 -19 29 -53 41 -75 12 -22 25 -42 28 -45 4 -3 22
-29 41 -59 19 -30 44 -64 56 -76 33 -33 33 -46 1 -105 -88 -163 -176 -215
-317 -185 -54 11 -131 76 -175 145 -23 37 -62 190 -91 353 -29 172 -25 426 10
605 3 15 8 45 12 67 3 22 7 47 9 55 1 8 5 22 8 30 9 24 68 266 71 292 7 52 50
153 143 338 118 232 132 250 293 357 74 49 151 96 170 103 19 7 46 21 60 31
81 55 223 65 347 23z m1823 -6 c93 -27 179 -89 255 -183 22 -28 42 -52 45 -55
3 -3 27 -50 54 -105 27 -55 59 -122 72 -148 13 -27 24 -54 24 -60 0 -7 7 -25
16 -42 17 -32 37 -118 55 -230 6 -38 13 -81 15 -95 2 -14 6 -43 9 -65 3 -22 7
-56 10 -75 2 -19 7 -96 10 -170 3 -74 8 -184 11 -245 16 -328 7 -459 -44 -635
-9 -30 -17 -58 -18 -62 -1 -5 -2 -9 -4 -10 -1 -2 -4 -15 -6 -30 -5 -30 -93
-211 -105 -216 -4 -2 -27 -18 -51 -36 -114 -87 -248 -68 -360 50 -29 31 -60
64 -68 73 -9 9 -26 33 -38 53 l-23 37 49 48 c58 57 112 131 172 233 24 41 48
78 54 82 6 4 8 8 4 8 -3 0 9 37 27 83 19 45 35 93 37 107 2 14 7 30 11 37 26
42 27 325 1 493 -9 58 -20 137 -24 175 -5 39 -16 88 -24 110 -8 22 -15 46 -16
52 0 7 -13 42 -30 78 -16 36 -30 71 -30 77 0 6 -9 21 -19 32 -11 12 -35 48
-53 81 -19 33 -43 64 -55 70 -11 6 -38 31 -59 56 -57 67 -213 179 -312 223
l-39 18 23 25 c13 14 24 32 24 39 0 8 4 14 10 14 5 0 28 16 50 36 22 20 70 49
107 64 75 31 145 33 233 8z m-825 -112 c17 -3 50 -8 74 -11 112 -17 435 -158
464 -202 4 -7 14 -13 21 -13 32 0 162 -131 172 -173 5 -24 10 -28 30 -23 20 5
26 1 36 -21 7 -16 26 -48 42 -73 35 -51 66 -110 66 -123 0 -5 6 -23 14 -40 29
-66 50 -133 53 -167 2 -30 8 -72 28 -215 1 -11 6 -44 10 -73 l8 -53 -74 5
c-41 3 -119 8 -174 11 -144 7 -271 15 -343 21 l-63 6 6 63 c14 127 -56 256
-186 342 -60 39 -81 44 -238 48 l-130 4 -39 -32 c-39 -32 -75 -71 -129 -137
-29 -35 -36 -48 -72 -131 -19 -43 -24 -47 -61 -51 -23 -2 -44 -1 -49 2 -4 3
-12 39 -18 80 -9 65 -17 84 -59 145 -94 136 -130 161 -258 177 -86 11 -97 10
-114 -5 -10 -9 -23 -17 -29 -17 -22 0 -122 -57 -157 -90 -70 -64 -84 -82 -119
-154 l-35 -71 -162 2 c-90 1 -173 -3 -186 -8 -15 -5 -24 -5 -24 1 0 16 42 134
51 145 5 5 9 16 9 25 0 24 83 182 124 237 70 91 91 116 161 188 39 39 90 85
115 101 25 16 47 31 50 34 8 9 122 74 170 97 60 28 191 73 216 73 11 0 24 4
29 9 18 18 202 55 325 67 36 4 67 8 69 10 5 5 337 -4 376 -10z m-805 -687 c49
-11 101 -54 148 -124 15 -22 34 -45 42 -52 8 -7 11 -13 6 -13 -5 0 -3 -6 3
-14 22 -26 12 -226 -10 -226 -5 0 -9 -12 -9 -26 0 -14 -8 -38 -18 -52 -10 -15
-21 -35 -25 -44 -9 -24 -105 -98 -157 -120 -25 -11 -55 -24 -66 -30 -39 -19
-198 6 -215 34 -5 7 -9 9 -9 3 0 -14 -130 126 -130 140 0 6 -11 39 -25 73 -26
64 -32 116 -15 127 6 4 9 12 8 18 -3 16 35 107 45 107 4 0 7 6 7 13 0 16 64
85 116 125 55 42 87 53 162 56 34 2 65 6 69 9 8 9 19 8 73 -4z m895 -54 c22
-2 45 -11 51 -20 6 -8 16 -15 23 -15 6 0 35 -24 63 -52 108 -112 128 -228 68
-399 -18 -52 -37 -98 -41 -103 -5 -6 -9 -15 -9 -22 0 -16 -96 -109 -139 -135
-57 -34 -187 -31 -286 7 -76 29 -115 48 -115 56 0 4 -7 8 -15 8 -26 0 -64 53
-89 125 -14 38 -26 79 -27 90 -4 55 3 94 20 113 10 13 16 31 14 44 -4 21 17
78 51 136 7 13 39 50 70 82 31 33 56 64 56 70 0 5 12 9 27 8 15 -2 28 3 31 11
3 10 26 12 106 7 55 -4 119 -9 141 -11z m-1755 -285 c10 0 22 5 25 10 7 11
225 13 278 3 23 -5 27 -11 27 -37 0 -39 44 -162 70 -198 11 -15 20 -31 20 -35
0 -15 97 -100 140 -122 58 -30 185 -40 229 -18 17 8 44 18 60 22 16 3 35 13
42 21 6 8 17 14 24 14 28 0 145 132 145 164 0 8 4 17 9 20 5 4 15 29 22 56
l13 50 50 0 51 0 -5 -67 c-6 -74 19 -172 60 -238 20 -32 89 -95 105 -95 4 0
37 -13 74 -30 106 -46 277 -58 342 -24 57 29 164 146 185 200 52 143 50 139
80 138 16 -1 74 -4 129 -7 55 -4 163 -9 240 -13 77 -3 156 -8 175 -9 19 -2 50
-3 67 -4 l33 -1 -6 -122 c-3 -67 -12 -145 -20 -173 -18 -58 -53 -163 -61 -185
-4 -8 -7 -17 -8 -20 -5 -16 -28 -60 -48 -91 -12 -19 -31 -50 -42 -68 -11 -19
-35 -51 -52 -73 -18 -22 -33 -43 -33 -48 0 -4 -16 -22 -36 -41 -20 -19 -50
-48 -68 -65 -17 -17 -53 -48 -81 -70 -27 -21 -52 -42 -55 -45 -17 -22 -203
-129 -234 -134 -20 -4 -38 -11 -41 -15 -4 -7 -96 -31 -122 -32 -5 0 -16 -4
-25 -9 -17 -9 -130 -29 -203 -35 -22 -2 -80 -8 -130 -12 -100 -9 -280 -8 -341
3 -21 4 -52 9 -69 10 -42 5 -122 23 -175 39 -25 7 -65 19 -90 26 -48 14 -221
96 -281 133 -98 61 -359 318 -359 355 0 6 -3 12 -7 14 -11 5 -104 148 -97 148
4 0 0 8 -8 18 -20 24 -66 147 -79 212 -10 51 -13 192 -5 250 19 146 48 264 58
245 5 -8 18 -15 28 -15z"/>
<path d="M1481 2286 c-6 -7 -25 -16 -41 -19 -16 -4 -39 -16 -50 -27 -11 -11
-23 -20 -27 -20 -19 -1 -55 -77 -59 -126 -14 -147 125 -254 271 -209 42 14 56
25 82 63 44 67 59 121 55 210 -2 39 -54 95 -107 118 -51 21 -111 26 -124 10z
m150 -59 c38 -29 53 -113 25 -136 -21 -18 -77 -24 -108 -12 -29 11 -53 67 -37
86 5 5 9 17 9 26 0 39 76 63 111 36z m-171 -152 c23 -12 30 -23 30 -44 0 -32
-22 -43 -57 -30 -25 9 -39 55 -22 75 14 17 14 17 49 -1z"/>
<path d="M2261 2219 c-18 -6 -42 -19 -54 -30 -11 -10 -24 -19 -29 -19 -4 0 -8
-6 -8 -13 0 -7 -13 -31 -30 -53 -38 -52 -43 -101 -17 -178 25 -77 36 -89 103
-115 62 -23 124 -27 157 -9 12 7 28 13 34 14 20 3 41 28 74 90 27 48 32 69 32
124 1 79 -19 156 -42 164 -109 39 -154 43 -220 25z m193 -54 c15 -12 20 -28
20 -70 1 -58 -13 -82 -52 -90 -12 -2 -26 -6 -30 -9 -5 -3 -23 4 -40 14 -30 18
-32 24 -32 73 0 68 24 97 78 97 20 0 46 -7 56 -15z m-144 -193 c25 -31 25 -58
1 -72 -36 -19 -90 21 -91 67 0 46 56 49 90 5z"/>
<path d="M1786 1924 c-15 -15 -14 -18 14 -46 24 -22 39 -28 63 -26 26 2 33 8
35 29 4 31 -11 44 -60 53 -27 5 -40 2 -52 -10z"/>
<path d="M1667 1724 c-12 -12 15 -60 40 -71 32 -15 89 -17 98 -3 9 15 25 12
25 -5 0 -33 112 -54 150 -28 30 21 16 32 -37 28 -52 -5 -79 6 -88 35 -7 21
-49 28 -60 10 -12 -20 -65 -11 -87 15 -22 26 -30 29 -41 19z"/>
</g>
</svg>
